<mxfile host="Electron" modified="2023-09-22T12:44:30.499Z" agent="Mozilla/5.0 (Windows NT 10.0; Win64; x64) AppleWebKit/537.36 (KHTML, like Gecko) draw.io/21.6.1 Chrome/112.0.5615.204 Electron/24.6.1 Safari/537.36" etag="OfabCXo-MxcTu2usldyA" version="21.6.1" type="device">
  <diagram name="Page-1" id="LJhDoYM8GGtGKUL-O_BZ">
    <mxGraphModel dx="950" dy="585" grid="1" gridSize="10" guides="1" tooltips="1" connect="1" arrows="1" fold="1" page="1" pageScale="1" pageWidth="1169" pageHeight="1654" math="0" shadow="0">
      <root>
        <mxCell id="0" />
        <mxCell id="1" parent="0" />
        <mxCell id="R9aIYXGMt73mxW7MGIt1-1" value="Vertex Shader :&amp;nbsp;&lt;br&gt;Pour chaque sommet&lt;br&gt;&lt;br&gt;&lt;div style=&quot;text-align: left;&quot;&gt;&lt;span style=&quot;background-color: initial;&quot;&gt;&lt;font style=&quot;font-size: 9px;&quot;&gt;- Application de la matrice modèle à la position&lt;/font&gt;&lt;/span&gt;&lt;/div&gt;&lt;div style=&quot;text-align: left;&quot;&gt;&lt;span style=&quot;background-color: initial;&quot;&gt;&lt;font style=&quot;font-size: 9px;&quot;&gt;- Application de la matrice modèle aux normales&lt;/font&gt;&lt;/span&gt;&lt;/div&gt;" style="rounded=0;whiteSpace=wrap;html=1;verticalAlign=top;" parent="1" vertex="1">
          <mxGeometry x="350" y="290" width="120" height="170" as="geometry" />
        </mxCell>
        <mxCell id="R9aIYXGMt73mxW7MGIt1-2" value="" style="endArrow=classic;html=1;rounded=0;fontColor=#FF0000;strokeColor=#FF0000;" parent="1" edge="1">
          <mxGeometry width="50" height="50" relative="1" as="geometry">
            <mxPoint x="290" y="376.76" as="sourcePoint" />
            <mxPoint x="350" y="376.76" as="targetPoint" />
          </mxGeometry>
        </mxCell>
        <mxCell id="R9aIYXGMt73mxW7MGIt1-3" value="VBO" style="text;html=1;strokeColor=none;fillColor=none;align=center;verticalAlign=middle;whiteSpace=wrap;rounded=0;fontColor=#FF0000;" parent="1" vertex="1">
          <mxGeometry x="290" y="350" width="60" height="30" as="geometry" />
        </mxCell>
        <mxCell id="R9aIYXGMt73mxW7MGIt1-4" value="Uniform" style="text;html=1;strokeColor=none;fillColor=none;align=center;verticalAlign=middle;whiteSpace=wrap;rounded=0;fontColor=#3333FF;" parent="1" vertex="1">
          <mxGeometry x="380" y="480" width="60" height="30" as="geometry" />
        </mxCell>
        <mxCell id="R9aIYXGMt73mxW7MGIt1-5" value="" style="endArrow=classic;html=1;rounded=0;fontColor=#FF0000;strokeColor=#3333FF;" parent="1" edge="1">
          <mxGeometry width="50" height="50" relative="1" as="geometry">
            <mxPoint x="410" y="480" as="sourcePoint" />
            <mxPoint x="410" y="460" as="targetPoint" />
          </mxGeometry>
        </mxCell>
        <mxCell id="R9aIYXGMt73mxW7MGIt1-12" value="" style="endArrow=classic;html=1;rounded=0;" parent="1" edge="1">
          <mxGeometry width="50" height="50" relative="1" as="geometry">
            <mxPoint x="470" y="372.5" as="sourcePoint" />
            <mxPoint x="550" y="372.5" as="targetPoint" />
          </mxGeometry>
        </mxCell>
        <mxCell id="j9u7WpE4ALorNl15ndxJ-19" value="Geometry Shader :&lt;br&gt;Pour chaque face&lt;br&gt;&lt;br&gt;&lt;div style=&quot;text-align: left;&quot;&gt;&lt;span style=&quot;font-size: 9px; background-color: initial;&quot;&gt;- Application de la matrice camProj à la position&lt;/span&gt;&lt;br&gt;&lt;/div&gt;&lt;div style=&quot;text-align: left;&quot;&gt;&lt;br&gt;&lt;/div&gt;&lt;div style=&quot;text-align: left;&quot;&gt;&lt;br&gt;&lt;/div&gt;&lt;div style=&quot;text-align: left;&quot;&gt;&lt;br&gt;&lt;/div&gt;" style="rounded=0;whiteSpace=wrap;html=1;verticalAlign=top;" parent="1" vertex="1">
          <mxGeometry x="800" y="290" width="120" height="170" as="geometry" />
        </mxCell>
        <mxCell id="j9u7WpE4ALorNl15ndxJ-35" value="" style="endArrow=classic;html=1;rounded=0;" parent="1" edge="1">
          <mxGeometry width="50" height="50" relative="1" as="geometry">
            <mxPoint x="720" y="350" as="sourcePoint" />
            <mxPoint x="800" y="350" as="targetPoint" />
          </mxGeometry>
        </mxCell>
        <mxCell id="j9u7WpE4ALorNl15ndxJ-36" value="" style="endArrow=classic;html=1;rounded=0;" parent="1" edge="1">
          <mxGeometry width="50" height="50" relative="1" as="geometry">
            <mxPoint x="720" y="372.02" as="sourcePoint" />
            <mxPoint x="800" y="372.02" as="targetPoint" />
          </mxGeometry>
        </mxCell>
        <mxCell id="j9u7WpE4ALorNl15ndxJ-37" value="" style="endArrow=classic;html=1;rounded=0;" parent="1" edge="1">
          <mxGeometry width="50" height="50" relative="1" as="geometry">
            <mxPoint x="720" y="394.26" as="sourcePoint" />
            <mxPoint x="800" y="394.26" as="targetPoint" />
          </mxGeometry>
        </mxCell>
        <mxCell id="j9u7WpE4ALorNl15ndxJ-38" value="3 sommets d&#39;un face" style="text;html=1;strokeColor=none;fillColor=none;align=center;verticalAlign=middle;whiteSpace=wrap;rounded=0;" parent="1" vertex="1">
          <mxGeometry x="720" y="312.5" width="70" height="30" as="geometry" />
        </mxCell>
        <mxCell id="j9u7WpE4ALorNl15ndxJ-39" value="" style="endArrow=classic;html=1;rounded=0;" parent="1" edge="1">
          <mxGeometry width="50" height="50" relative="1" as="geometry">
            <mxPoint x="920" y="352.63" as="sourcePoint" />
            <mxPoint x="1000" y="352.63" as="targetPoint" />
          </mxGeometry>
        </mxCell>
        <mxCell id="j9u7WpE4ALorNl15ndxJ-40" value="" style="endArrow=classic;html=1;rounded=0;" parent="1" edge="1">
          <mxGeometry width="50" height="50" relative="1" as="geometry">
            <mxPoint x="920" y="374.65" as="sourcePoint" />
            <mxPoint x="1000" y="374.65" as="targetPoint" />
          </mxGeometry>
        </mxCell>
        <mxCell id="j9u7WpE4ALorNl15ndxJ-41" value="" style="endArrow=classic;html=1;rounded=0;" parent="1" edge="1">
          <mxGeometry width="50" height="50" relative="1" as="geometry">
            <mxPoint x="920" y="396.89" as="sourcePoint" />
            <mxPoint x="1000" y="396.89" as="targetPoint" />
          </mxGeometry>
        </mxCell>
        <mxCell id="j9u7WpE4ALorNl15ndxJ-42" value="3 sommets d&#39;une face" style="text;html=1;strokeColor=none;fillColor=none;align=center;verticalAlign=middle;whiteSpace=wrap;rounded=0;" parent="1" vertex="1">
          <mxGeometry x="920" y="310" width="73.5" height="30" as="geometry" />
        </mxCell>
        <mxCell id="j9u7WpE4ALorNl15ndxJ-44" value="fragment Shader :&lt;br&gt;Pour chaque pixel&lt;br&gt;&lt;br&gt;&lt;div style=&quot;text-align: left;&quot;&gt;&lt;span style=&quot;background-color: initial;&quot;&gt;&lt;font style=&quot;font-size: 9px;&quot;&gt;- Calcul de l&#39;intensité lumineuse&lt;/font&gt;&lt;/span&gt;&lt;/div&gt;&lt;div style=&quot;text-align: left;&quot;&gt;&lt;span style=&quot;background-color: initial;&quot;&gt;&lt;font style=&quot;font-size: 9px;&quot;&gt;- couleur&lt;sub&gt;face&lt;/sub&gt; = texture &lt;b&gt;si TEXTURE&lt;/b&gt;, couleur&lt;sub&gt;in&lt;/sub&gt;&amp;nbsp;&lt;b&gt;si PAR_SOMMET&lt;/b&gt;, couleur&lt;sub&gt;uniform&lt;/sub&gt;&amp;nbsp;&lt;b&gt;si UNIFORME&lt;/b&gt;&lt;/font&gt;&lt;/span&gt;&lt;/div&gt;&lt;div style=&quot;text-align: left;&quot;&gt;&lt;span style=&quot;background-color: initial;&quot;&gt;&lt;font style=&quot;font-size: 9px;&quot;&gt;- Coloration eventuelle des arrêtes et points&lt;/font&gt;&lt;/span&gt;&lt;/div&gt;" style="rounded=0;whiteSpace=wrap;html=1;verticalAlign=top;" parent="1" vertex="1">
          <mxGeometry x="1246" y="290" width="120" height="170" as="geometry" />
        </mxCell>
        <mxCell id="j9u7WpE4ALorNl15ndxJ-46" value="" style="endArrow=classic;html=1;rounded=0;exitX=1;exitY=0.5;exitDx=0;exitDy=0;" parent="1" edge="1">
          <mxGeometry width="50" height="50" relative="1" as="geometry">
            <mxPoint x="1176" y="375" as="sourcePoint" />
            <mxPoint x="1246" y="374.76" as="targetPoint" />
          </mxGeometry>
        </mxCell>
        <mxCell id="j9u7WpE4ALorNl15ndxJ-48" value="1 point" style="text;html=1;strokeColor=none;fillColor=none;align=center;verticalAlign=middle;whiteSpace=wrap;rounded=0;" parent="1" vertex="1">
          <mxGeometry x="1176" y="342.5" width="60" height="30" as="geometry" />
        </mxCell>
        <mxCell id="j9u7WpE4ALorNl15ndxJ-50" value="" style="endArrow=classic;html=1;rounded=0;strokeColor=#CC00CC;" parent="1" edge="1">
          <mxGeometry width="50" height="50" relative="1" as="geometry">
            <mxPoint x="1366" y="374.65" as="sourcePoint" />
            <mxPoint x="1446" y="374.65" as="targetPoint" />
          </mxGeometry>
        </mxCell>
        <mxCell id="j9u7WpE4ALorNl15ndxJ-54" value="&lt;font color=&quot;#cc00cc&quot;&gt;La couleur du pixel&lt;/font&gt;" style="text;html=1;strokeColor=none;fillColor=none;align=center;verticalAlign=middle;whiteSpace=wrap;rounded=0;" parent="1" vertex="1">
          <mxGeometry x="1372.5" y="340" width="60" height="30" as="geometry" />
        </mxCell>
        <mxCell id="j9u7WpE4ALorNl15ndxJ-55" value="Connnection des points avec le EBO" style="rounded=1;whiteSpace=wrap;html=1;strokeColor=#B3B3B3;fillColor=#B3B3B3;" parent="1" vertex="1">
          <mxGeometry x="584" y="300" width="100" height="140" as="geometry" />
        </mxCell>
        <mxCell id="j9u7WpE4ALorNl15ndxJ-56" value="Rasterisation : interpolation des 3 sommets vers un point de la face" style="rounded=1;whiteSpace=wrap;html=1;strokeColor=#B3B3B3;fillColor=#B3B3B3;" parent="1" vertex="1">
          <mxGeometry x="1030" y="305" width="100" height="140" as="geometry" />
        </mxCell>
        <mxCell id="j9u7WpE4ALorNl15ndxJ-58" value="" style="endArrow=classic;html=1;rounded=0;fontColor=#FF0000;strokeColor=#3333FF;" parent="1" edge="1">
          <mxGeometry width="50" height="50" relative="1" as="geometry">
            <mxPoint x="1266" y="490" as="sourcePoint" />
            <mxPoint x="1266" y="460" as="targetPoint" />
          </mxGeometry>
        </mxCell>
        <mxCell id="j9u7WpE4ALorNl15ndxJ-59" value="Uniform" style="text;html=1;strokeColor=none;fillColor=none;align=center;verticalAlign=middle;whiteSpace=wrap;rounded=0;fontColor=#3333FF;" parent="1" vertex="1">
          <mxGeometry x="1236" y="490" width="60" height="30" as="geometry" />
        </mxCell>
        <mxCell id="j9u7WpE4ALorNl15ndxJ-60" value="" style="endArrow=classic;html=1;rounded=0;fontColor=#FF0000;strokeColor=#00CC00;" parent="1" edge="1">
          <mxGeometry width="50" height="50" relative="1" as="geometry">
            <mxPoint x="1346" y="490" as="sourcePoint" />
            <mxPoint x="1346" y="460" as="targetPoint" />
          </mxGeometry>
        </mxCell>
        <mxCell id="j9u7WpE4ALorNl15ndxJ-61" value="UBO" style="text;html=1;strokeColor=none;fillColor=none;align=center;verticalAlign=middle;whiteSpace=wrap;rounded=0;fontColor=#00CC00;" parent="1" vertex="1">
          <mxGeometry x="1316" y="490" width="60" height="30" as="geometry" />
        </mxCell>
        <mxCell id="j9u7WpE4ALorNl15ndxJ-63" value="1 sommet" style="text;html=1;strokeColor=none;fillColor=none;align=center;verticalAlign=middle;whiteSpace=wrap;rounded=0;" parent="1" vertex="1">
          <mxGeometry x="470" y="340" width="70" height="30" as="geometry" />
        </mxCell>
        <mxCell id="j9u7WpE4ALorNl15ndxJ-65" value="- positions*&#xa;- couleurs&#xa;- mapping&#xa;- normales" style="text;align=center;verticalAlign=middle;resizable=0;points=[];autosize=1;strokeColor=none;fillColor=none;fontSize=9;fontColor=#FF0000;" parent="1" vertex="1">
          <mxGeometry x="280" y="372.5" width="70" height="60" as="geometry" />
        </mxCell>
        <mxCell id="j9u7WpE4ALorNl15ndxJ-66" value="- matrice modele*" style="text;align=center;verticalAlign=middle;resizable=0;points=[];autosize=1;strokeColor=none;fillColor=none;fontSize=9;fontColor=#3333FF;" parent="1" vertex="1">
          <mxGeometry x="365" y="500" width="90" height="20" as="geometry" />
        </mxCell>
        <mxCell id="j9u7WpE4ALorNl15ndxJ-69" value="- position*&#xa;- couleur&#xa;- mapping&#xa;- normale" style="text;align=center;verticalAlign=middle;resizable=0;points=[];autosize=1;strokeColor=none;fillColor=none;fontSize=9;fontColor=#000000;" parent="1" vertex="1">
          <mxGeometry x="475" y="370" width="60" height="60" as="geometry" />
        </mxCell>
        <mxCell id="yZNYXsLpvncfmWdorTTr-1" value="- position*&#xa;- couleur&#xa;- mapping&#xa;- normale" style="text;align=center;verticalAlign=middle;resizable=0;points=[];autosize=1;strokeColor=none;fillColor=none;fontSize=9;fontColor=#000000;" parent="1" vertex="1">
          <mxGeometry x="725" y="390" width="60" height="60" as="geometry" />
        </mxCell>
        <mxCell id="yZNYXsLpvncfmWdorTTr-2" value="Uniform" style="text;html=1;strokeColor=none;fillColor=none;align=center;verticalAlign=middle;whiteSpace=wrap;rounded=0;fontColor=#3333FF;" parent="1" vertex="1">
          <mxGeometry x="830" y="480" width="60" height="30" as="geometry" />
        </mxCell>
        <mxCell id="yZNYXsLpvncfmWdorTTr-3" value="" style="endArrow=classic;html=1;rounded=0;fontColor=#FF0000;strokeColor=#3333FF;" parent="1" edge="1">
          <mxGeometry width="50" height="50" relative="1" as="geometry">
            <mxPoint x="860" y="480" as="sourcePoint" />
            <mxPoint x="860" y="460" as="targetPoint" />
          </mxGeometry>
        </mxCell>
        <mxCell id="yZNYXsLpvncfmWdorTTr-4" value="- matrice camProj*" style="text;align=center;verticalAlign=middle;resizable=0;points=[];autosize=1;strokeColor=none;fillColor=none;fontSize=9;fontColor=#3333FF;" parent="1" vertex="1">
          <mxGeometry x="810" y="500" width="100" height="20" as="geometry" />
        </mxCell>
        <mxCell id="yZNYXsLpvncfmWdorTTr-5" value="- position*&#xa;- normale*&#xa;- interpolation*&#xa;- couleur&#xa;- mapping" style="text;align=center;verticalAlign=middle;resizable=0;points=[];autosize=1;strokeColor=none;fillColor=none;fontSize=9;fontColor=#000000;" parent="1" vertex="1">
          <mxGeometry x="916.75" y="390" width="80" height="70" as="geometry" />
        </mxCell>
        <mxCell id="yZNYXsLpvncfmWdorTTr-7" value="valeurs de&#xa;couleurs pour&#xa;points/arrêtes/faces&#xa;+ n° texture" style="text;align=center;verticalAlign=middle;resizable=0;points=[];autosize=1;strokeColor=none;fillColor=none;fontSize=9;fontColor=#3333FF;" parent="1" vertex="1">
          <mxGeometry x="1216" y="505" width="100" height="60" as="geometry" />
        </mxCell>
        <mxCell id="yZNYXsLpvncfmWdorTTr-8" value="données de&#xa;caméra et lumière&#xa;pour shading" style="text;align=center;verticalAlign=middle;resizable=0;points=[];autosize=1;strokeColor=none;fillColor=none;fontSize=9;fontColor=#00CC00;" parent="1" vertex="1">
          <mxGeometry x="1296" y="510" width="100" height="50" as="geometry" />
        </mxCell>
        <mxCell id="0bkkpEUSFk_DkG3AUi4P-1" value="- position*&#xa;- normale*&#xa;- interpolation*&#xa;- couleur&#xa;- mapping" style="text;align=center;verticalAlign=middle;resizable=0;points=[];autosize=1;strokeColor=none;fillColor=none;fontSize=9;fontColor=#000000;" parent="1" vertex="1">
          <mxGeometry x="1169" y="375" width="80" height="70" as="geometry" />
        </mxCell>
        <mxCell id="0bkkpEUSFk_DkG3AUi4P-2" value="" style="shape=image;verticalLabelPosition=bottom;labelBackgroundColor=default;verticalAlign=top;aspect=fixed;imageAspect=0;image=data:image/png,iVBORw0KGgoAAAANSUhEUgAABCYAAADNCAYAAABkZ3FtAAAAAXNSR0IArs4c6QAAAARnQU1BAACxjwv8YQUAAAAJcEhZcwAADsMAAA7DAcdvqGQAAFJ5SURBVHhe7Z2LeRVH0obFJuCfCFgi8BKBTQSYCIAIgAjAEciKAIhAJgKZCLREIBOB1hHon/cwDU2raqZvc5H0vc/TcI7OTN+7p6q6uufe1cCREEIIIYQQQgghxAb8a/xfCCGEEEIIIYQQYnVkmBBCCCGEEEIIIcRmyDAhhBBCCCGEEEKIzZBhQgghhBBCCCGEEJshw4QQQgghhBBCCCE2Q4YJIYQQQgghhBBCbIYME0IIIYQQQgghhNgMGSaEEEIIIYQQQgixGTJMCCGEEEIIIYQQYjNkmBBCCCGEEEIIIcRmyDAhhBBCCCGEEEKIzZBhQgghhBBCCCGEEJshw4QQQgghhBBCCCE2Q4YJIYQQQgghhBBCbIYME0IIIYQQQgghhNgMGSaEEEIIIYQQQgixGTJMCCGEEEIIIYQQYjNkmBBCCCGEEEIIIcRmyDAhhBBCCCGEEEKIzZBhQgghhNgB//vf/47+/PPPo7dv3x49fvz48FkIIYQQ4i5w72pg/CyEEEKIlfnrr7+OTk5ODv9jnAi8e/fu6Pnz5+M3IYQQQojbizwmhBBCiA3AEPHo0aNv3hGxUUIIIYQQ4i4hjwkhhBBiRTBAvH79+uj9+/fjX77z66+/Hv3yyy9Hv/3229G///3vo//7v/8bfxFCCCGEuL3IMCGEEEKsxH//+9+jp0+fHv3999/jX77yn//85+jNmzcHg4QQQgghxF1DhgkhhBBiBTBKsG0j3bLx6tWrg1FC3hFCCCGEuKvIMCGEEEIsjGeU0AGXQgghhBA6/FIIIYRYFLZtsH0jNUocHx/LKCGEEEIIMSDDhBBCCLEQ4aDL9EwJtm8QhBBCCCGEDBNCCCHEYvDmDV4FGhMOuhRCCCGEEF/RGRNCCCHEAuAl8ejRo2tbOM7Ozg6vBRVCrEM8Bvkcvof/NR7FXSHu+3GIYTzoMGaxBTJMCCGEEAvw4sWLg8dEDK8DPT09Hb8JIZbCO3A2BQXs8vJy/CbE7QFvvd9///0H48PceICLi4ujf//73+M3IdZDWzmEEEKIzvz111/XjBLw8uXL8ZMQYknwWMpZ9ZW3hOjNw4cPj+7fv++GdHvfUmCcIzAWYuPEFGw1bDFKkIZV5jjwfBTCQoYJIYQQojMnJyfjp+/gLSElSIh1YLyx8otjMG/A8fj555/HT0K0kxoCrLAW4TyjEkND6zOK8ltljoO8MYSHDBNCCCFERxBKrRWhZ8+ejZ+EEGvCG3BQ0iy8vwtRQ443wFoGaoxzb9++PRjocvv5L7/8Mn6qA8PEFHgxyTAhPGSYEEIIITrCFg5WhWIQxuQtIcR2eMqQDBOiJ58/fx4/2dDftjhY8smTJ+OnaVrHw6dPn8ZPNnoOiilkmBBCCCE68uHDh/HTdxDGthBGhRA+KGFavRU9mfOY2LNizlhoHQ9zHhMab2IKGSaEEEKIToT9xSm5q1VCiGWwFCat3oqe4Clnzf8xrVslavny5cv4yafVW8J7/sVsVX5xM5BhQgghhOiEd9q6FCAhtsNTGHXwpehJzvkSW20dSrcXWrSOhzlvCdiq/OJmIMOEEEII0Qlrf7EO+xJiWzyFUQZD0ZM5xXzLZ0GO0aB1PMydL6GtU2KOe1e8R0kIIYQQTbAixfvr05UpTkY/PT0dvwkh1uaPP/44ev369fjtKyiJl5eX4zch+jDnmbDFWUMYJR49ejR+s+k1HvZYfnFzkMeEEEII0QGEP0so0wqRENtireTKW0IsAYr3VNiCNbeYWGWOgxBTyDAhhBBCdMBzldVhX0JsizU2db6EuCvMbbEAnf0g9oAME0IIIUQHPOFPHhNCbAdGCevgSyli4q7gGc1jZEAXe0BnTAghhBAd4HwJSwG6uLiQcUKIjbDOlwCNy9sNczGB7XUhhK0Eod17becJW/i8/wMYw9bezkAd8Gyao2U8bFV+4icEw0v4vlQ7e+wlHzGkn44B8hPCXreyyTAhhBBCdMAzTCz9mA0CCP9DqcAR7g+ftxBYYuEJEORqhWSPUM6QRk05a/PZmna4P3yubaM4Hwina3sNpPWXkweE/ZZ8vnjx4uj9+/fjt68Q3/n5+fhtGUJdh8+wRL8WX6GOOUvh5OTk0GdCnefAAcW0y4MHD46eP39+6JdTEP/jx48Pn0vS2cIYxiusnz59On6zKR0PNeWnTin/XN3OQXqM548fP1a3M94hzKEtedlLPgKkTz4+fPhwGAdh7pmCfDx58uTQ53cDhgkhhBBC1DMIXFgfroVB+Biv6M/Z2dnVIFhcDULND2nynd/m4JpXr15du58wCEtXp6en45X9uby8vHrz5s3VIBCb6YdA+Y6Pj8e76vDqibbJqSfalnoir/H9IRCvh1fHfF+zjYjHq2vqhjIuAe1M2oPga6YdAmWhnHE+uJe/hWtq+yPtHKdFIN4loKy5/frdu3fjXaKF0E+m6rs0EOcUtJ1131SgT2wB/dHKTxxKxwNzshXPVGgt/xbtbLGXfAR65Ie2OT8/H2PcFhkmhBBCiEZ4qHsP/N7kCiKeoFEiyPRWnshTrRBVmpe16gklM2UvbUT89EHrvjiQjpeXWoIxxEpvKmDEwAiRGhRqDBPUYxxHCL37dUtZRT0YsjBqWXVbGxgLczBWUM4Z+1YcVtiqrXPyWDoeQvlL+jzzWS2kZxkYW0LNs3kv+QDmNtog5xmRE4hnKQN1CTJMCCGEEI2gmFgPe4TmniCM5ArDlsJcI8j3EFamFO2wWo6QhYDMCp8n/PFbDiX1ZCkMCKC5QncqcLe2UY3wa7VRqdCao5DlENraSoO2pg1pZwwN/E/9W9fGgbwRbymkYcXXSwCnray2Jr+hT5MH/vfalN9EObTh3Dihb9FGoe9wD/VtXRtC6ZydO9Z7G8NyoNw5c0DLeMh9ntQYFoG8TZWB35hTStvZmnun2Es+gPjn+h3PL9KO8zJ3T01eeiPDhBBCCNEIQqf1oO+5SpYKIwhCKD8IQ5bAxN9iUoWX34mPPE4Jl61l8IQoBKcpYdWr0zkBl/Ti8rTW01yI89OjjeLryAf1T5jKU9pGqTBMXefE06o8pXUfwlxbp+VOQ6myGKDe07jSOq8FY2SaZ77HykCKZezqlZ+7hjWnxGGqL6OkWfcQGK8lzCmeIZDm2ngG8zi09j9rjFmhtvxzho+5ecW6h0C+S9hLPnKeT/Rhbw6au3eLfhojw4QQQgjRiCecpgpjLQgZsVKDkBQLEAhFcbohBOGEa4NA4ilPCDPp/eH6WtJ8h0D+PcEpxqpX8uMJT3P15Bk7Ql5iBZn/qRP+BpYiSgjxz6U910Zp2lYb0Z/S+8P1gbjO+LslMHtKHX+vJS1/CLlt7bUNoVRZDFjlbCljgDpO+4JX1zFeH6BviXy8egwhp41rDZ8p1hyVhnh8rklO3lrHQ45hgnmhhh7t7D3XStp5L/mIn+NemJsrvXyEsPVcJMOEEEII0YgnnPUyTCD4xHGmih7f43RDCL8FhXFOefKEnhzFMoV74nyHQF5y4+M6K08I3BYt9RQLfV49pcpMLHDXps3f47SJMzZopEy1EfkLCvNUPXt5wYhQA/FxbxpfaVun94dQIrzHWHVVukKZYil7OUYJ8Mro9WdhY80rccgxZHltMTX2LHIUc/K7BXP1RGgdD56xNA61z8G5/DPfzeG1c+68BHvIB9cxn1pxhJDTz+b669Zz0b+GTAghhBCigS9fvoyffmRQWMZPbQyCz+GVboOAdzQIDlnxcj3wukReI8Y9xDMIL4e/W4R7evD7778fXlUXE/KQWy9cNyi847fvELfFXD1Zr3Tjev7OK/V4xdpUPaV/i+urpY1ev359SHtQpI8GBXfylYLeb7Qx8VAW4j07O3PzwN+t30peeRdDe/CKuhjyOZWHlKnr4nrOhfqwXplXE1eAMlp9b25cBbx6F2XQtlPw2s85aIe0L/B9auxZfP78efzk8/PPP4+f1mWunqBlPEDOnMFrMWtI55QaaOe0TSlzyTjcQz6Y26fak3iYh+bwZJVASb0sgQwTQgghxM5BWEDJ8xReSwFDof/jjz8OxoEgtMwpT55QXiqskCZpp7x8+bJYELaUDIRhq8xz9WQJ0dRTEPrm6onfiTsEyhOYS9tTkuM2mjNKgFd/GKAoH/fnGASs3+fusfDa2quHKazrKe9cnVh4ykRp/wtQtxiv0j706tWrLKNEwOqDNfV+l7HGUkyOsQCePHly6Fsh1PSNNZT/GsjXXD3R7yzDbwk55a9Jg7xbYyVmrnwB0o/bmXbPZQ/5YI59//79+M2GZ1HOPJLTJzZl9JwQQgghRCWeO2uOS3EPBkX0WtqDsvTNrT/XXdcqxyBAjb/m4bmcEk+J+2wAF/k0LgJlLsWLK4RBmR6v7I/VRoOg+q2NcrYCgNfXCMSVWy+0R3o/cZfgtTV9r4Y0HkLtGCIPaVzktRZvbJT0ae8QvNy2F75LfBwYB6VbMmogDSv9OJCXmnmvlXfOGRpxaBkP4PXnOFD+GpaMu4St8+HNsXHI7WM5ZVlj3EwhjwkhhBCiEW9FZW6lpRfWqhWrLKTPau7bt2/Hv05j5XcQisZPeZCulZ9nz551XY3JXaWKmbqHemL1eymsOmFVnzovWXWf6lNv3rzJXp206qLU5dxr69iTJBevbWrd4K181azcAu1krVhS3yV9mvpK4f7afAkbxojl3dIbq4+lMH/2nPdy+fTp0/jJp7Xf5WxxqE0Dj4I5aN/Hjx+P35Zh63x4c2xMrreEtwUywDMop7xLIsOEEEIIsRBLC8YBTwhFWMnZdxqwBKBSQeXk5GT89B3yUav0e3VYU7e96qkGL23qFwU3F09IRQHIrWMvjh5tjXBbo4x4homauOgbPQwvAUugR+F8/vz5+G0e8mPVV65SIb5CXeX0U/r4o0ePZpW6Fj5+/Dh+8ik17PYix2hQe/ZDIMf4UTvmaOeccUE5aWdv/mhl63xYc0ZKzjzE4oRlGI2pMSj3RoYJIYQQ4objCd8lSg8ClSVUlQiv3uoOymVuPnKpic+rp9KV7xp6pO0p3NDLuJGL19Z4xtRgxUW91KzgeUpZjZGDuKz4SoR4ysaKampMo2ylBjviwBsgDtYZH7eZXO8ixgrKYq7HWCleP4tpVf5rmJonYlqNJt48ElMz5gK57Uw+Hj58uNg42CofxDdXx7Th1BwZ5os5bwnmoZa26sa4pUMIIYQQlXj7/ocH/XjFcnj7RgdhpWhvs3f+Qsme00GAM+No2UPPuQ894uxVTzV4aQ9C5XhFHtY5FQTqvQSrv5bmxWrr/2vYT2/FV1quwBvjlXjkrQarrnLLyTXs9ed6K45e56RQ3rsE9ZrWwVygfzMOe5Gbhy327HtzeRxKx3tKznkFLfMB5JzhkYbe7Qxb5cOax9LgjX3mllevXplzTxq4bi/IY0IIIYRoZHj4j59+JGfVqhVvRaX0TAcrnkG4Klqx9vJCPLXkuAvn4K1u9j77wsKrl5LT4cGLp9QF16qLktUyVuG8OGrr0ipbrRu49VaG2tXA0nKGumGVntX68LaUGMbDoDhU5ckbp3cJ6r506xX1RnvwBp4eePNJTOn82Qtvnohp7TO5abTMrdRdqUdRaOeeXjJb5ePDhw/jJx/yhvcaXhqkhWfW/fv3D//zt3TuiQnjiDco7YbRQCGEEEKISlhx4JGahuHBP16xHJ63RulK3aAkXYujZCWll1dAyiB4mfGWls9b+V5jRbNX2pZXQWn9eiu9JR4o3oos3gE19MhTDHWbxlXjVeB5qDAuyBvlxaOH77QNbWGlHQK/cX3LKrLVB1riu8l4c99coJ1a6yxnNbtk/uyJ1UfSUDtWAzlp9Cp/bTvzTOvJmvnw5sQeocc8tBQyTAghhBCNTAmpS2Mp7giNJXhCUIli6G25aBFOyZel6PG3UnrUUy290rbiKa1fz6hQIqR6/b3WyIOSlMZFG9cIzp6BrMbIkaN85gQUk16KQNoHWg1/N53aNmo1TliG3DTUGtZasebMNLQaZK25KA09y888Z6UxF3qPj7Xy4RlFawN9AsMK8faYh5ZCWzmEEEKIRoaH/vjpOlOulK0Qt7VdpNQF3nNLHoSp8dM8lvs8tBz+Rtms+ivJF/Sqpxp6pY1rsBVPaf1abxKgPqf6cIrX1oOyMn4qo0eeAj36csAr5xTkmbQGJeDgJn1+fn7YtjEoNFXliaEvsfVoUMZ/CHcZ3Nep39K+x3jiUMAaaIfcrRxrQ7msOTOGflg7VsGbi1J6lv/4+PgwnkrHUEs7W6yVD64vJbQr9f7bb78d5gbGBnPQ5eXlId+/Nmy3W4XRQCGEEEKISrxVaELrAVhTeOmWrlQNAsy1OAbhZvw1D8+1t2VlzvPCIL8l9KqnGnqlbXkVEErr11rpLPW6sOIo7S8B8j8IytfiK81TwOqHtXnzykm/DIF2YRWScb7nlci7QM1qds0c4I3pONB3tsCbM+PQ6imWU/7aMTcHY6xmS0Xv5/DS+ciJm7mH+JhDb8vcI48JIYQQYkFyVpZqsVZVWA1hVaQE65Ct0ji8FR5WcGrxDr7skbeaeqqhV9pWXQzCf1H9et4bJV4X3G/FUbsK9/79e3OFt9bTxqrvmnb2yklceD+EgGcEf6MtautA9GFQyg+rwyVjYu41ihbeXBdDf9iCnMOCWz3FLA+nlKXmVsYYK/9rtPMUS+djzusFwrxD+rdl7pFhQgghhGhkSgi1lJteWK7mpUJKD2UVrDhahHPyZblLU75SobdHPdXSK21LGSqt3x7bHDyBmTKVQlwnJyfjtx+p6TueMaFGEfPK+eDBg/GT2CP0m4uLi4Mrew6MK6+tPXK2+KyxTcxiDaNJzjaWli18OVAGjAK5z4KcPNewVD5y5IaaOXfvyDAhhBBCNDKlZJYKvSVYQk6p0r6kstqi+JMvK1722JdAHD3qqZYeaVMGS+Hodb5EDwG3pq1ZPbTauDZPnlJW09ZL9OktCX2I/pijvEJ8j9WP98zp6WmRcaKEnLpYa36JoRw5Cm1L3ugTOWmUPD9qYSxyhkJOeXLzXcMW+biNRgmQYUIIIYRoBMHEU1hqDtDLASEUISflpiurAe8d7rnKRgAhsEc91dCrjTzFqbR+exlJekBe2MZhUas4WfVEHd1UIZ6DHR89enQIDx8+PLp///4h3Lt37xC8+ouhvV6/fn24n3geP378LU6vLanH9B4CafL3mwKu9jltX9KnvTEdQ59rUf5ryTUYtMzLOUYZ6nzNMYcRKoelDBOBNfPRax7eGzJMCCGEEB3wBLGlBAhPQCxdqeqhrPYG4f/PP/8cv30Ho0SP8sEaK3q90vYMEyXtRD+0BOI1DDQp5AUF1xsbtW7wlhGwtp1blLdecF4AbU8IBra4zuban/swLPzxxx/X6prfXrx4MX77DtdihLDuAf5u3bckIc0QrLnBgjYsNWTO4Y3FmDXmFoschbd1bs9Jo7b8zAlxO+cYQSDXEJQ7pveQj9y81sC45g0hueVaExkmhBBCiA54gkSOIFuDdchZ6UoVAoolaJYqhpS9pyDleUu8fPly/JRPj3qqpVfaVjwI/yV17vXDUiXCy3uOwhJgCwf5If8cHplS2zZWGWuVJC8PlrKeC/diKMhVCHAPv7q6MuuIupuqJ9LAwDDVLij44XfyhhI2ZTAK4KlR0t6t0F9IM4SSOfWnn34aP/mU9JGc9vfia+k7OVjzRIo3t+fmLccDsGbs8BsGqNp2zmnDnPlyL/mYi4d81oxBysIcxNhnftibcUKGCSGEEKIDawujPZQwT7CZEiy9e6y0awUnhMEU3oBQs9rXo55q6ZW2FU9pXVhxTCm3XG/1XU+ozhVwEfoJgKu9lcZUnqxyBKz+NqWITeWZclplzVH+LMg3CgH/oxBMlSOFt02kTPUjxg8ropSRMuBifnl5abqahzrDIMF9XP/mzZvDgX4YRThI0kor12uhFeop7SM9t8dR3ikDT0pO2pYxhDJg+KEPbInVp8kb/YV+OUfaFhbWmAvl99KwxmLJWJvLF304p533ko8cT7bSMUjZUmNl6Vy0NDJMCCGEEB2YWpmrUdCnQJAoUcI8PIHEEpyCYBmUqxRLkCotN2lYK7bkB2WplF71VEPPNuoRj6VQWUoKkCYCKyFtC0+R47q59sYgEV6Xh6EJN3urL1nxE3dQnqx7vLS9MtLPiMsyggWsbQC5BpiYVCEgT3N1FZO2AXiGCa7F44j/uQYDA+UgzfB/DNfFRgmMRZxtEeL3xp6VpyWw6jv29JhjzpDQe6uHRahj8k3fXco4kdMm6TV8D9sVQj9txUuD8ntpWGPaanuPuf7w5MmT8dM0e8lHjuHZOzw4hWvCfJdejzeWNd9uhQwTQgghRAc8RQFKlJAcLOEJpvJQwpRgyeegXMagaKZw7ZTil0K8qRCIssSKcapQ5bB0PU3RK20vnhrvkZS0nYH0ggDLZ6v9vLSn2joYJYgXYRhll3FhjY00X1wTFHt+s7b6WGWBNH6uoy+HvFp9OWApEeH+HLg2VQiC8l+iEFt15K2oEj+eEdQxW0HmlA7amLbhumDESLH67D///DN+WhZvtZp6nYOyTSmV1FXp9rCceSjOM3mI+1vA669LE+eNuglu/TFTectRYtPy0//jNIg/TcMyIHENRrI5KMdcO1vboSz2ko+ca8kXdeulyd8ZJxxiG7zUYpjHa5+ti3ElhBBCiGYuLi6ueKxaYXj4j1f1YRBYzHQuLy/HK/IYFBgznkFxGq+4uhqUm6tBGP322yDMuOlY+eLeHAZF9dq9g8B0yGMtveqphl5pW/FQL6W8evXqWjyEQRkdr7g6tDtxh9+4x4I+EccRh7jvANcOyu633wcl91sd8H98bwhT/Y/6sOrQi4u0A1wT54V4GbdTkN84vhCoG+te0iDP/B7XJaG2PzN/xPEQ5vJt4c1R5Is8e9BH0nvSdl6KuO3TMDWvkuepewnMOaVQbiuuNNBvmCvTPhD3/954YzwNjAHykeZtam4PWPO0FUrTqG3ndH6wQsnzdy/5AOrJiscK1DN1Tv1a9Z4G+spS/bAFGSaEEEKIDkwJETUC8BSWAIQwUspUnoNgGf9tTnDlNy9vniKFAhEriyEgWLUYJaBXPdXQK20rHtqhlCmFKgiz8d/m+mx6fRr4Pc07f0v7T/x7HKz+NydMW3VFoHyEWFgn7hzl3lLK40CaIX7i9BQCfouNQCWkxiniqsEzRM4pTNZ9rWMzB8+QEgfqgr5K/yZPlIW+k6OY1TA1Z84F+shU/20F5dhKNyfkKqo5beIFL425MUaw2nlqvIVQ0s57yUdMS5tagXyS970iw4QQQgjRCU84QbHohScY1wo+CFVWfGkoEVw9BRGFAaGOQHyeQIcAn6M0TtG7nkrolXbPMnhxpSFXcC1VUDylzPMsSQN9Zg7qxbo3DaUKYotyQH2Sr5L0UtLxVDufUIdxPATqYg6Ur/S+1vGZg2UQaQ20x5whZo7cPhtCSLOlD+SSO5+HUFMf9BkrLi/MpWH1r9ZAmqUK+F7ykdLLONHjubo0MkwIIYQQnfCEQhTyXnjCOn+vYU7BrBFcEcBLhXcCglNpWh6966mEXmn3LgMCshVfCPTfklV9BGb6hxVXCKH/eEpZTv/LLS9pTClmc3mZgnrxDG5WIC36c62XRIC8pnHXKjqWZxJtOEd6H3W8BtRdqRLsBdoDA1EPxWyun8WhRx8ogfLl9tNaRbV3+RnfPdsZA1zNGN9LPiyow5pnaq95aC3u8c+QcSHERnCoFYcixQdJhYOBCIFhcjFf9SWE2A8cNGUdMjUIcYeD5XrAYWLW4X8c4jYIpOO3MoiTQwDDAWXMN8TF4X+DMF99OBbxEieHoVkHdBEvdcNBfoPy0/VQyiXqKZdeaS9RBp43Jycnh7ghtAFtPQi+VW3NwXAfP36sjpP70v5Xmyeem4zD+LDBEFePPkYeaRPyHB9KSR5DvnljSq/+THq8jSRmUCar2v/+/fs/yBWDwnI4IHMODs+Ly0qbvHv3bvy2DtQDeScf4XBFPsf5igltEdqe/0v6UQ7M9fT7eG4jDdqGun327FmXPlADeQv9NBDy1mssLFH+tJ3D57jfBkJ7kgahZzvvJR8ptCf1Tb2TH0JMXP9hHloiH0shw4QQG8PEnnO6NJOLDBNC7BsUNOuUfwSDy8vL8du+CYLXEsIMcRNC3DdJYLqNxG3Ri9Y4e/a/nnF5LJ1GOqeQTs1cgkKTvqbyzZs3s28bsO7DKIFxYk+Edggs2eYWcfprpz3HbRgHgb3U857ae899rxS9LlSIjQkGBwSEqRWQNd67L4RowxvDseCwdxBslhJuiJc6WjINkc8SbdAaZ8++0TMuj6XTSF9fyEpsDZbHUo5xwbqP1di9Edph6fbw2DLtOdbI11plD+mskdYUe8kH7CkvrcgwIcTGIKRjnGDVYsrVu1YYEUKsx5RgcJOME0KI7WHOSA0DtbJA2P4QYK6aWgwJ1N4nhBClyDAhxI7gge8JHTJMCLF/psZpuhdUCCGmsPa0cx5LDfFZA5AjU1iGkT16SwghbgcyTAhxA0CA0AqFEPvnNrhSCiH2gbWNomaRAqNEahjNiYf7UsOItpUKIZZChgkhdobl7q0VCiFuBhgmPOOENbaFEMIj3UZRu0hheWvleF6kXhZQYxgRQogcZJgQYkcgPFgChFYohBBCiLtFzfYLC14tmJITl3W+hBZKhBBLIcOEEDvCWp0ACQJC3By07UoI0YN0ocLyxkJu8GSHgHWAZs48lcbLPWke8ASbS18IIXKQYUKIHWE93BECpOgIcXPwtnJ4fxdCiJQc70muefr06dHjx49d4wCGgzSuWs+LdJGEuF+8eHH06NEj8zwMIYQoQYYJIXZE+r5ykLeEELcDGSaEEC3EBgYMARgkwt8sQwZYBoPcN3uk5+LExg8+Y5D4888/D3ObztARQrQiw4QQO8Ja8dD5EkLcDuT5JITIxTJk/v777wcPBQwSeEpgjOC6d+/eHf3222/jVT9iGSxyFzzSOQsjR/DQCEaRufSFECIXGSaE2AkYJSwBQidgC3GzsFYOZZQQQpSAwv/8+fPx23fev39/MBAwzyAfnJ+fTxoFrAMsc+ejly9fjp++g4dESF9GCSFET2SYEGInWO6WIMOEEDcLGSaEED04Pj42ZQAMAvx2dnY2O7eknpgl20MxjFhGh2A0ubi4kFFCCNGNe1cD42chxIbgHslKRExYDRFC3Bzu3bs3fvrOq1evDoqEEEKUgpcEHpX//PPPYXsnxoVcY6e1RbR0wQPZhHhI/8GDB4f0tWgihOjNaoYJVoMJuJSxmsSE+uTJE9NNzSK+H4IrGnEsfTgg+WVCJv0vX758c7cnDxAeEj3y0VpP5I0HSPzOavJJIJ8Ixx6tacf3Q00bxXUdx0PeyQfxLUlaBxDqj7Q5MMpaHeCek5OTb3XM9aU8fPjw2laOJZUZyhfKSp2n5e3Zr4W4KzCWOBAu5fT0VCuLQgghhBAeGCaW5Pz8/Oo///kPxg8zDErPeKXN2dnZ4Rrr3hDm4qiFtAfF8GpQ0sx0rfDmzZvx7jJa64n7B6F3Mq/8bhHute4h5LTRVN4J/H55eTneYfPu3burQfk37w+htn6nIF/EO1eGONAvLi4uDvemfWRQQMaY8yGeOP4QqJOekE5or9x+zbWUVQgxD+M/HUOMtbn5TwghhBDiLrOoYeL4+DhL+fGUr9z7CT2NE1OKOvlBeZ5SoHOU8Ji16slS6hGia9O2lPKp4LUR8UwZRtJAeXsxZVShXPxGvr32Tu/lnhoFxFJmCD0NAl5ZQzm9eiBwjYwTQszDPJuOH88oLIQQQgghvrKYYQLlMRXOvJAKbSh2z58/N6+dCjUr1Smeko9yisEiVTpJ01Ja+VsOlhDrhdZ6SuuntY1KjAkhpAYO6nTKyGOFXkpyaVuT5lyZUe5rsPoBeeuB10/IK3WQltPrk8Qhbi60857DbYH5Ix07PZ5NQgghhBC3mUUME7Fig3IVKz+WYhcrYFwXK1FBeUIp5DfPEEBIledSPOVwTqgkX1ae5vKDt0G4tqae4mv4jfgog3UvIVbmW9sovgZBnDri76SB8YHr4/tD4L4Ayn98XWwQIB7yFN8bB35rwVLUyUuOAjHlWUAb1GDVeVxXtXiGH/IZ2tvCM3hN3SP2TakBcO3QOqb3APNWWi7qXQghhBBCTNPdMJEqvLiPx6AoxUJbuC4QK+ue8mQJf4Q4nlIsJThXUQXKmd5PiI0BMXE5EVzTeiLdOJ5wHVAnsSKLEpnWU6o8xyv5rW0U0uZvsUEjxquPEA/1EhQl/uZtU7GMRYSW1XsrTvKQ29bkNb0/hNw4Ukg/jYt8tuAZJXLitfofIe0r4uZg9YU9hdtgmLDmFm9uE0IIIYQQ31nMMIGihWKUYhkVgtIcGwfmVp4tITsovaVYRglCqZJp5clToINhgjxbxgvLOBDqKTXeWKSKZZyPljaK750TuD1FCENGcHcmnql65tr0fkKtN0GrAQqs+gnBass5rLYmlPa/GOrNqv+5cRXw6r0lT2JbZJhYFsYMc0lcJuY5IYQQQggxz2JbObyVVUsJQ2lG4QlCXY7yZO3jRfAuBUUyFSYJuQpcTGwwCIG4PagnyzAAlscB8ecab4KQHEJqRChtIwwBtFH4nrMKaLURIdQT+cpRdNP7CTUeE15bUxcleEp77JVSgmcYqzFyBGKPmhD4G3nPwTO+yDBxc5FhYlnS+Z+5Rh5GQgghhBB53OOfQYhajT///PPo6dOn47evDEru0evXr4/+97//Hd7zzvdBqBt/tSEO4ooZFMOjQakev+VhxUPaxDMI8uNf8nj79u3R77//Pn77zqAMzpYn5f3790cvXrwYv32Fuvnrr78O9TQo5keDIF8cbw5zbTQI4Ie057DqNoY4iGuO+/fvH9KNyc1DjNdnBuWhqB7//vvvo4cPH47fvkObUE+l9OrLgT/++OPQVjGUj3ISbw7//e9/jx49ejR++w5x/Prrr+M3cZOgTdNxtCeYb0vn3L1gjbk3b94cnglCCCGEECKDg3liRVgVI1krsKKXu6JrrcazIlxC7AEQh9IV9IBXNs8rYope9VTDVNp4BbS0UQi5Hg+kZd2f47ER47V1zYqm5VFCKM1TgPZM42L1tYZeXiFWHyDeJfudEDcNxoM1Vmo8uoQQQggh7jL/GoSoVfn06dP46To5nhIBVq1TSlfbTk5Oxk8/wsp3T2pWKXvVUw1e2qTZ2kZAOw3C/PhtGi+O0vJbbY33QM3qv9eeNXFRPquMP//88/ipDDx20vxRVzmeKQHu//Dhw/jtO5RvyX4nxE2BMYL32uPHj695SjBOcuc3IYQQQgjxldUNE7gTW6A45Sp2njL3yy+/jJ/mIR8Ililslyg1cMxRY5joUU+1eGm/fPkyeysAZfaMCrg45yq4Xl5K6sBra8pTg5UnylPTb3qUL0B9W1tnKGeJQQFFK80X99NuQtxl2LLBFie2cmGUSMcJ8/Pp6akMeEIIIYQQhaxqmECIs5TVUqXHU+ZylWbwzj549uzZ+Kmcz58/j5/a6FVPNUylXbLq7rURCneJR4rlvUE7lwj+1uo/92OEqsHKU62xyKon8lZj5OBcEstbIre+uZdzTYgnhX5XMr6EuI18+fLlMGYtYzNnwuApUTI3CSGEEEKIr6xumLAoXdG14kFpKlHmLGUVWpQvzzOiVMm0VvehtJ5qWLKNoNRLwaqLEiMAbWIZoYijti6tstVuvbCMWbVGDm/7xVz/o444pI9VYM8oUWKUEuIu4j1ThBBCCCHEPKsaJryzC0rPdGhdsUaxtLwCSo0bKZ4yXqoA96qnGpZsI+q2xEsBhdlqp5ItOxg2rDhqDQlenmoNWpbhpSZvXp9OPYDIP9dirMEYEdzSrbMpaC/c0vVmASG+8uTJk4OhznrehG0e3nNACCGEEEL4rGqYsJSwUmMAypMVT6myalG7Ug2ewkrZSo0dlmCbs/Ldgx5tBFYZSrdOeO1UYgTwlIRaI4+VJwxPNX2HvKXGAKgxcnhbk9iageGBV66GgPLEK0oxRlh5oK1xScc1vXa7y10Fj5MQvP4rbi6Mcwx1vDb36urq2tY6xpN19oQQQgghhJhmNcOEp7izAlVCD2XVOwuixLiRYpUNShV6r55a8pZLrzZCKO9RBku4LzWSWG2NIaHWyGO5a5Onmm0hPfpywOvToU35n+BBmmzXwBhB4HPtVpe7CsYhDEEhfPz4cfxF3FYwUjBeYhhnGP6EEEIIIUQ+93hn6Ph5URDaLWGNlaeS1WYEQVZ6Y1CqUuFwClaQLcX54uKiWmHFjTd9bRywolbiCt+rnmrolTarxShmKaX1a7UTCnPJq/isOEr7SwCFg/hSBb80TwHqOvV0qM2bVc5gWIj/D/XP/w8ePDi0K59lhGiHPh+f0cE2mD15nDBHTRmntoa+uPQctxQYGfGUiKHt6QNCCCGEECIDDBNrMCjoGEB+CIMydHV5eTlekccguF6LZ1AMx1/zGBSxa3GQlxYGIfRanIRBMB2vyKNXPdXQK+3nz59fi2dQuMdf8yDNNA5CSX1eXFyYcZC/Go6Pj834Sts4YPXD0r4MXjlr4hJ10F8ZK3H90y57wupvewqMr5uMNX/Wzg1CCCGEEHeN1bZyWK7mpSu1rPZZ7u8lWwRYVba8JchLLV6+KFvpimmPeqqlV9reFowSemxz8FaHa+qSuHq+ycXrhzUHX1rxQO0Bn6Kc1BuBcdMyp4ibB55xaZtbnmNCCCGEEOI6qxkmLEWz1G13SWW1RrkMkC8r3tIDFomjRz3V0iNtymAZJkrPl7D259NGJcqep7D/9NNP46d8cNHvceZFwIoLatra69NrGLPE1/o/OTkZv32lZT4RNxe27sXQN0q28gnhPRuE6Alzkyc7CCHEVqximOBBa02AWxyG6NGixHkr6aWHRqJI96inGpZsIyhto15GEovStiae9FyTQK3RyKon8lXTl3uVc0nII+dpcA4Le/F5Mwj/c84GiptnRJqD+7g/xEl88TkPOYS8xSE3P9zLqnjaBlaccagtbwv0rT2H22BIszzkMFql/UMIC54LzGXpeSVC9CQ8tzibypPZhBBiE8YtHYvi7c0v3YM9CK/X4ijdR997P761t5zwn8IzFaBXPdXQK20vnpJzKnqcLwFcb8VTupfdOz+E8O7du/GqMqw4+VsNXjnPzs7GK7aD/sPYssZIGjj7I7efcN1UvCXtYtXf1P3n5+eHtGmvnHJZobbfiP3zq3EOUumcI+4myA2hz/C55LkpRC7xeTg8w/YgKwghBKziMfHp06fx03fCKlkuWHitVcbSffTDJDx+6oN30v3Lly/HT/n0qKdaeqVtxYNXS0m999iyM0XJ6iXtywo3WHXR02Oitp179+lAqedBCnWHF0M8Rsgrq8qDYn9tdZn0clZwwmqPN/YAz4zcdrbSm2pXVsBDvyjpSzG1/UbsH8vLLN3qI4TF6enpt+cc8xLzp1a0RW/wMgxbjXmG4aHDM00IIbZmta0cKaVKpuf6XCrgoxhZilyNazUTuiVwkqfS8yWgRz3V0ittK57SNrLaosZI4ins1iGfFpQlbOFAkbbqw0tjSmGlfD2MbAGvnay2yIG8o/gTrNfHzhHuj40D1NPx8fHhlbEI33zm/6urqx/6B9dPuTFTJoT1YCziXvb1p32DeHLLn/YH8jrV19ii9e7du28hrX/ujX+3QmlfFjcHazx6Y16IGOaF+PXc9BnmQ89YL0QtPIfiM3F4Xus8HCHE5nx1nFgO3J5JJg24kpUwTKJmPN5WA+LH3dpieOhfi4e/lUL8aTyDUlPlFternmrolbYXD21XgrXNYRD2x19/BFdXrrfS8LaE0EZz0K8GIfFwPX2DuML3EPjuwbYEz33bqye2FFhQtrn+meaNQL2UEuozjsfLl4V1/9yYsOrW6ntxmxBnnC/ij+8n5Pa7NO3SeiMv8f20vbi7ePOOtnOIEtJ5tPQ5KkQOPEfjflYjCwshRC8WN0zwMI0nvRBKlB1AqLPisYivtRQcL08IlLl4cdQaEnrVUw1Lt5FnPPJIBTKC9bBMlWArv5bCTpjKU6oA890yJngGDhTTcI2ljFhKNMFS3mmboPhOCQyWkYxQUvekn9YX8ZaMizQfqQHBw7rPgrq14qSc8f2EnHStdi0Zw9b9peNG3D7CmI2DDFailHRerJUvhJgilUlYCCp57gshRC/u8c8wES0GLt3WXvVh0nPd4C1wMbPejDAoJN/conHf5pqwV474B8Xu2l52rsMdPHWtHR76Wa5suIjjXhnc1AODEHFwUa+hVz3V0CttKx7uJ54SLNfVNB7qnvSCSz/u08PD9Vp+cU+09k4OSv7h+hTSJV76BnENSubh2rCFICUePuSJ9EId0C9JI/TPAGlY2xXoO/ShAPmmPxMveeH3QbkZf/0R8sv5DCleHmLID69nTeuJvDAm0jr1oC3SrR+5Y8q6d1D6Tbd42iL9u1WnlJu2m4Iy02YxtHk6Z3hY98dzkrib3L9//9rzwZtzbithLhVtpHIKzwDkGnEdnr3eG7TENMxX8ZzFM5ZnoZ5lQohVwTCxJMOk9oMlloA1thRWIdN4CKwiD8Le4XfiDX8flKnJlUsvPuKagt+JO72PlY1BcR6vKqdXPdXQK20rHtqnlHSVKAT+Tv2zahSnRV69uufvcRxx4D7iwisBz4ap/uPFg8eG1f/In+et4MXFPSGu2OuCvJDHOeJ70sBvlJG4CcRH2eM8h0B6XFsCZUrjojxeu6RYngcleeDa9P4cb5G0zih7bp4h9e6hDoTwxtVdgrksrQOF9sC8Kmx4rll1plAXGMNCCLEmixomPAUMBbMULy4r8OBG0ZnDU+SCAhwgbb6jZKfX1ihxKT3rqZReafcsQ4lwQZuQ9hTkwbrXC7RpbJQI8Hfr+jSglMwpxfRR6940eHmxoB4shagklKQXY7UZho9cWrdU1BoI0nYoNaSl9zOnCGE9Kwhzc9VtQoaJZUKNsf+uIMNEv4AskCNHCyFETxbdymG5Z8Og+GS7Ssd4Ww5ihod20an33haRHEjr+PjYdDcvoXc9ldAr7d5lyHlN2quCrQa5J5vTluTZ6j85fYU+wf1zefLqK4a80L+IMxdcMYk3p6wx5Jd2Ir2c+kxJ24s42NKQG5e1FYO2zdkGAmxjiV2e6RuUZQrqCpf7mJz7Atb2Huae5xVv5BG3C2++8bYn3Vbm5nAxDX0o3iqW+3y5y6jPlcOzMGxhBfoXz7Kl5U8hhLjGwTyxEKx4kkQaclysPYaJ0oxzmEgPngs1K1JYhT3viTSQDtf2tCQvUU+59Eq7dxm4z/MqGISzqlX9Kc8J0srpP14/YYWe+0vw6qylLwe436u/OJBv8tHSn7k3jZdxWoK10pVbn1b6Of2Da2ruC1h5XmPMiv3DHJX2DULP54a43TD/8SwIfYfn113yuBHrwJwUywrIBHqOCSG2YvHDL5eA1Was4v/888/RgwcPDqsIrHBj5W0lxA3ED6RB3Kx09UpH5GG1deuKY9zGtGVp/2EVi9Cj/5EP4mLFIvQxQq8+RvyEsBIS8hzSaK1LsDxJWNUrWW2xDpHM9T7Aiyo9ZG8QrEyvl5jWgytTDy7u434hUg+ewFnGgaxCpHPqmwLvMSFyQfbAwzIcesncxLO7l/whhBCl3EjDhBBiPyDYYOyJKVHwwYojV4lLDQQYW87Pz8dvPmmaufcFUuUTQwxCnRAyTIgaUBAxlob5DAXx+Nh/G5MQtWCYx/gVjBIlW2OFEGIp/jX+L4QQVQTvkwCCTYlRAtI4INebg1WfmBzFD2Gs5r4A96eK55MnT8ZP4q5jGSWEmCM2sjKP6swasQT0MQxgsVECA5iMEkKIrZFhQgjRRKqE1Rgl0jjCVpM5rHt/+eWX8ZMPnhJBKAvk3BdIjRrQY1uMuPlMGSVKx4a4Wzx79uzwf/De0uGDYgkwwvN8DcYvjBJCCLEHZJgQQlRjKWGlCnq6hQNyvQ9q0scgcXJyMn77Tkm+Wzw8xO0mNXgJkQuGCNzp2RImI5ZYCvoW28rkkSOE2BsyTAghNgMl7sOHD+O3r7CKkyssffz4cfz0FQSuOYEeN9bUsIBRoUQR+Pz58/jpKzJKiMCUYULKppiDQy7VT8TS8MySR44QYm/IMCGEqMbabpGzBSPAlojU6wGjRK5gnhoY5u4jrfQNIlBqWEjTLSmzuN1Y3jQgZVMIIYQQwkeGCSFENSjkqVI+tcc+hpXl1EhAXLgy55KmNWVgIL3warQ0z5ZhYWrlO013TumM3xoibjdev7H6mBBCCLElPLOQaTCqE9hem4YpeUiInsgwIYRoIn2bhXUwpAWvK0tXl0teV8aDNH1Yeg9P/s6J96THCeRpnn/++efx03c4tZyQYqUx9dDGNZu0Hz9+PP5F3Ga+fPkyfvoRGSaEEEJsCUaGR48eHV5pff/+/aN79+4d/uc7fyewgJOGKRlHiJ7cuxoYPwshRDF4A6B4x1xcXEx6EWCUSJX+8MqyXHhQ8kCNwWOC0+xjMGCQFg9kfufQL4wEsVGEdEkfiJfrg5dDekCYlS5K5+Xl5fjtK2k8IW0pqLcbhDj6Wgp9iL4kloGxlnoyYegs3aY1RRp/LcwBmge25ba3Jc+fsAKOsZTvhJBX/v/pp58Oz2lCyeuy7wrUHYr6FBxUe5PO6mChxNrOOoUlVwmxGBgmhBCiheHBhYHzWxiEnPGX6xwfH18NQtEP17969Wr8tYw4jjiui4uLq+FBejUoJt/SIo+Xl5eH+6z8cv3Z2dnhc/i7l69BkPvhfgL3cT/xDAroD9fwW0hb3G6svkGo7eNiHsabVeeD0jBe0Yd03moNxDcoNYe+0Tuvwoc52mqPlsC4D23Jc2ALeMYwFni+1fRVnlPqi9/x5pU4IGvcJOibyEXec8oKenaJNZFhQgjRDA/nVBBCOMIIEZR1PqcGAe7h77U8f/78h/i8kBoGeNBa18VhKl8594eAsCqjxN3B6gMEhFzRH8aWJ2S3zC0ppINAHxsulwjMLTdN2blpBKN1iXJWE9ZS6ELf7Gk4I767zpx8gTxzk0E2scqVBj27xJpoK4cQogu4PYZzHOYYBKiDe+DwwGt6WwGuqeyN5H8L0sGFfhCyfnC3xY2X+yy4jnxNuWeSXrodJIV4SHcQTse/iNvOVL+6aS6/N4Up1+TjaItWT9g2wnY0C+azMNfEc06APjK3jYD76C+/yr1+cbytV8AzCqx2hNy2PDs767qlKIYzneiP1rOItOlDv/zyy7fnLM+uT58+zR7IrPnq6LCNY+oZf9O35+Vu65jbmitEVw7mCSGE6ARuoFjiB6HoB6s731ltZCWGFatesFqUrmyQFn+bSgdPjtiDg8/krcS7gRXZOA7SDfFo1fPuQZ8KfSEN/Cb6YnlqxYFxuATMEVZ6hNzVRebJuRVZ9ZnloR2suifwWw5zbUkf7fnMC/D8sfo/f+O3qWcZv8XPrjSUPAdvI1NjPISb7klAH7HKFQf6khBrIo8JIcSiBG+G4QF3+H9pSK80rZp7UtYup9gf1kGwAa069Ye6nlr5XXJFk9PsLQYFtGh1nBVZvK/C/BHDXDIoSOM3sQRTXk6lYxbvBe/tS/QJ+kYP6CvxwcoxpHN6epqVb+LBKyD1+uiZ15vKVFsGbvqcPjd/Al4z9Cch1kKvCxVCLArC9ZrKek1aPfK3djnF/rCUy4CMEn3B/X5OqJ5qjyVg/JcYJWBKCST/c2XcmrCdIQ43Ca+P0C6lY5ZtE2zbsMAA1atuPKNESD833/RXthumaAvR1/aagrq76XN6zvxovUpdiCWRYUIIIYTowOfPn8dPPyKjRF8QqE9OTsZvX5UEvCPWwlNaSo0SAfqHdxbGx48fx0/7A+MQ3gZpuEnGCS+vtco593lnM/QwMnG2iRUPfY+V7VLjuJVXzqS463AOxxS1Y31PzBlf4DaUU9wsZJgQQgghOuCtQJUqC2IaFDNcrQOs+j548GD89p2lFGQv3hYh3lMG43Lujdg4FOP9fY94bdmyUvzkyZPx0494hstc6Pd4S6Rg2MJTomaesVb+pYx+PfyTne5e8Dxjbgq5HjzynhFrI8OEEEII0QFvBUqGiX5g/IlPkkdw9rwlclyVa/AE+paV5pumANDXPaNJD8+AtfBWxlvawxvvLYYy7rWMEqTFOSotc0xcVowU8vC6/eR6S+jZJdZGhgkhhBBiQbQC2Q9c2WODA94SnvC8lGHCU2Zb2nmpvC7FlFcEZfFewbk3LAWN/tSinC+hzGGUsPrIy5cvm41aeBsFg8RNM5CJOua2qoD6gtgCGSaEEEKIDrSsiIp5qN9YIWZ//BbCs6XMtq40e4aJPa5Y5hge9nw2RoByWGN2KUNibVtS11Z909+8s0lKePv27eENE4Sl3mIj9kXOFjGdNSK2QK8LFUIIIRpBweHgPwuE/TUPZ7yt8Pq+IFCj5LHPOyiReFJYru68brOnco9RglcsprS+Vg/F8+nTp+O37+zxdX0osvF2GgvqfO+vOvXqHGX/+Ph4/FaO1xdr4sV4Qr+3jGF3YV4JxiMCnwkB+lgIrYZBCHGn6aTfwTvgdEvIY6grQiDUT9iawXX3798ff/WpfR0q8dNf4z5L2iH9PUFeeaaE+gp1VWrwDmUO/RRq47rzYJgQQgghRD3n5+cY+c0wKJbjVaIW6jCu00HJG3/5yqDw/fB7CINyPF7Rh0EZNNN58+bNeEUd3L9EvL2hPgdh+4c8DgL41aCo/fA3AnW1Z7w+0zperbqojdfL46DkjVfcPuhj9HvKSN+yyu8F6v758+eHessZ+7RJaRpcvxco49nZ2aHcOeUYlGS3f8aBMV4K+ZhrM9qmZk7mPuKdCpQrl7m88hvP9DlyykzgOpGHDBNCCCFEIwgelkBCyBFwhA+CLMJfqE+EwFS49QwGveseg4iVTqsymyr7BMp5cXExXrEPUgMRASXS+jtK0J7xFLSWOqdfWkqK1Wfn4HqrXxD2bvSpgfIyvuaUvJIwh2cQnAolCvBSUFcYX7z+0RpKysgcm2PsCIG5vJSccqbGagvyyrxk3W8F7/lRWua9zeN7RmdMCCGEEI3ErrMpg6A9fhI14BofuwVz4F9unQa32l5YLvXQ4q7LlgKr/+CmPwjk47d9kB56STuQT8qftknsIr1HrLYclKamOk8PZw2U9NmAV3/kb1CKxm+3A8rKFimv/gIldUhbzkE9Dgp+1rWBllfJ9oC6YnsP24XmxldpnwvkljHkxToDxYNx9+LFi/HbPPSHnHlk7kwM+la8HTAHa6tXaZlb55S7hgwTQgghRCNTwrSEknoQSGNlmLpkr35KrQBeAm3sKbO16VM+S0gnvjdv3ozf9gECeSrUY5CgTcivpSyXKCxrQjt6Sn8txGm9rYT+YfXZObw3nzx79myV/r4W1BsKoKd8UlaMB+fn54dzS66urg7/87cpcoyFoW2IO7ftS4wYvUG5pq6seShAuU9PTw91FOprrq5ScsoYFP2pZ59HqSEjh6k8cy6O92abKeiTcb8M9V8ST4vR+i4iw4QQQgjRiCeoyCjRBspZXLco6yVKmafs1ICAbLVzreBJXJawTPk42HBvyqelKOMJEHjy5Mn46Ttzh2Ruhafs1K6G088shaW2Lcmft7KLh8ptgfrCMGeNKwj1h/EgVjz5O387Ozsb/3Kd0rdK5HihkO5WiiZK8ZxyTZ1glKAscZ/j77n9JqeM5IMQ4B7mZtLOMahShlyDQ8519A3rWRv6VzwPxXmlXuYIRhTqn3im6t9iaw+bG8dhQ4cQQgghquFwLh6paRgEpvEKUUp6bscgbI+/XMc744N92L0gLiuNmv3+3l7nQWje5fkB7JEmb3Ferb49KAc/XEPY4/5qb7xyVkYp9D2r3NRXTXwwKE7X4iPctvnEK2cI/D6H15al/c6LJw6M2S3w5p44DEr2eLUN51JY96VhroxpXujnjIEYazykIb3Hg3nfuj8OXtnTvDJ+0nMj0nktDczH5DW+jjoiHuqU3+Pr06DzJcqQx4QQQgixEIMwM34SpaSr7fHqfIpXz6WrW1N8+vRp/PQjc6uLMeSHlUZrrzOrfqwO565srsn79++v1SVbClKsVec9ek143gg1bWltQyAetgfkrMJbfPz4cfz0I5ZXyk3mw4cP4ycbxsQc1go980Gpt1rOXJGTn97QV+fGEP3Mqoca5sqIl0EYJ9Qx/TwdNzl1nzs353hMeN4xcV4pF14Safnm8ko+Y28o6vlsfFU1/Yz52ps3avrhnWc0UAghhBCiEm+1bWqVX/iw0hzX49xqIKtS8fW595UwCJhmGqRtBVbUCJSFld9BeDVX5/gbv7P6tkfIV5pvvlv5pbzxdeHaPeGtHNO+VjsSKBerpqEtB6XEbUtWaVva0qrDEMjLbYGyWGWMQ+6qetoWNfOuN77jUOsBUwv9iL5m5SUEyk6fycG6Pw25ZaSOvXTn8kzISWdqLMRhblzwfPaumWv3+HfvecLf43tC0PO/HBkmhBBCiEYQQCzBBIFIlIEwHguDCN5zgqenbPaq/1wBuSRQLpTcvSublhs5+fawBP09bU9BIUrz1xpCW7YYJAKe2z7K3m0iZ0xRFzkw/9LvQpjqnxbe/JGGtccq5bDyEYeSslr3p6FHGa05IA056cxtkyC0jIvcdidMPUvop8wBaehpGL8raCuHEEIIsRCDcDJ+ErlwyFjsGs8WjkHQHb/ZePWc6y48R89DNAHX30EwP5wWP1e2rbHc7QdFcPx0Hes3b2vCFvRuy0Fh+daWPca7t2VoUMDGT7eDnLGZuw3o9PT00AYh0BYleFt7Yqj/Nccq9eO9mSVAfxuU3/HbNDn9vkcZ2XqRk1ZOOt5YiGkZF7lzAXk9nnizCW1wOb4FJQ5T9wgbGSaEEEKIRmSA6AOCYiyMIxDmCt5WG/QyTHj7nBGKMTJYYUpgRhF69OjR4eyGPcOJ9GnZMTxMle2NsdedeHq1RStTZ4V4YUqJog2tM0Nq8fpa6Vsm9k7OnEmfoW6XJuccA/rBmmCgnRszjMXcZ0/O+GtR8gO5BpAccuJqGRe5Y5Y5Tc/4lRg9J4QQQghRCW6ePFLTIFfOMtJ6LNkCMAiOP9xLGATg8dc2cBVP4yZcZrjuX1xcHFx9B+XWjKPXdpMlGJSxa/nN2RtulTXXLX9prLzl9hPOPJhqy9ItBClT2xvoR7cJxo5VTivQPkuW3xvfccg9e6EH1I3Xx+KQewYH5GyL6LHlynsWxiHnuUgdWHN6Glr6RU6793qGiDzkMSGEEEI04q2m7GWV+CbAqnrsQcAKJW7yuQyC/PjpO7muulPQhtbKGqt+Oato5AuvD1zMLW+CsOK+N1hFTstNmVmlncN6Y8fcGxjWgDJZfYJy5UCfDG1p9U22HvCmjlq8/ko/s/r3TYYy5Y5v2u3hw4cHL4LeeOM7JbeP9ID8zM1d5KfEiyNnW0QPr5CcuszxcqD8c8/P1nGR4ylz296Es3dkmBBCCCHE5qT7qS0lfgs8AblGiGfvu6WMIcwvoXS1YO1vzxXSre03nlFgTTxFpMYd/N27d6aRhnbEyFaDVz9rKsVrMvUKYAuMPmyB6tmP6BNzCjDK75qGoRwjXun8M1dnPYxfuWM8pz/nGDhaDCm5eS0xjot2ZJgQQgghGvnpp5/GTz8yJ/CKr6DMxYIoAidCMoJjbrC8F3rUvycg1+5t5kA0SwHIPehvDai3VLmmfi2Dg4Wn5NQq7L3wVo1rFTKMExYvXrwYP5XRO397BwW1VPFDocR7ovSASw/PWBWztmEoJ08l8w/jeU7R71HG3LrM6c85Hh4///zz+KmcnnkV/ZBhQgghhGhEwks9CM2pUo4QjfJREjzBu9U44QnItYI8Sru10k4+9+I1QT7SekOBtIw/HpbHy9bGF6uPUKaWtrTupe5yFJ8Ur68+ePBg/HT7wLhTs/JNX+qxBSpHAV7TnZ9+g6F1CvpdSZ3NGSWgdgzE5Lx9JzffOeOnxWMip91b4hd1yDAhhBBCNOIpbHMCpsg7fb6F1jawBGTau8UY5XnY5AjLS0NbWK7k1rkRU3jGlxqFvQekbfUF2tEbvzl4ykuNd4jXV3sojXvm7Ows2xsnBoW71TiR0x/XrP9cI0JJn80pY8vbLQK90mEczM3bpcaZlJx67lEnogwZJoQQQohGPMG1VSm+7VA/8VkGCJsotDVhCa8VT0BuXUnz8rqH/oLAnuaD+i1VzkJbplhnV6yBpzQttSr65cuX8VM+Sxro9g5bnLytMVPQX2u3ztAn5sYc/XhNw8Tnz5/HTz6l+ck5s6K1jDl1CTnp5Bg4WvLrGSlT1mx38RUZJoQQQohGSlavxHdQKGJljMPwTk9Pq4KlBEOLsucJyK1GkD0roJbhoNRbImC5wG91zoTXlq2roj3b0otrCaPbHmG70OXlZfG5E7zZpsaol7NqvrY7f05/KumzOQYDFPDWPpZrTMhJJ2dLSIvRIKfdeabflXG3J2SYEEIIIRpBiLGMEwiZe1ZCtwQFNRYQqb8ad+6Atz2iRmEJrK3Mbm3goj1SoR3hvFY5s4xFlD1+Lexa9D4rJLDG+N66X6wJZcVz4vz8vEgxrDm/JGfr1NrKaa6Cn0uOIbCH8aXn+RI5hoOWOTinjtc2SImvyDAhhBBCdMATFlsU49sKylyqSHBY4hIKWIvi6LlVtyqzXrxbr9B53hK17cJ91up3jhLTG0sZob5b69xTcmrqbIn+f1NhjGGcyFUQazxxchTUm3zOAHNfzjaOlrdbBHrVJe249DaLnO0yPepElCPDhBBCCNEBT1DKEdjuGhx4GdcLymGp+3bKEkq9tXJHOy+lzG759gWUgbS8nmGhBEsZyVU+ekF9W+m1GphQ/Lxy9FRo1/DK2CP0Pw7GzDFOUEcl9eT1iZS1V85z8pQ7/+RucWktI2nkpJMz3nLOoGmZg+kjOR4ZrXODqEOGCSGEEKIDniKSI7DdJRAMU+Gzh7eEd3+tUofiYt3bKrAiFHt9Ykv3YZSYtLw9DhX1zv6oWeGuxTMEta6KTpWhpp94dV3bh2OI4/79+99CjnK2FzhDJoeSevL6RAxtuDcvltzxSF3kKPmUr3WM5zzjSGMuHcZTTr9smSe9eT1FholtkGFCCCGE6IAnLOW4jd4l2MIRC4YIq62r8lPUvB0BPAG5dSXcc62mHrYyTHhKTO2hlzEoPlb71pwJUMtS50t4bVlr0PHaP0eJniO8ljeEmvy18vr168OBtyHklos+1FtRzJmXtzQUtsL46uXFMEdOO871N/pk7pzQMgfnGqS2GB9ChgkhhBCiC97K001amVwa6gIFKaaH8gveyiYCbw2eMtsisFJ+7+DHXvVQg+UtgVLWSzGz3s5Bemt5E3ljsEUpox978da2pefBUduHA9RzbHjaQvFCIaTO6GshlMyNOW1VUqacvue1x5L91pvHAjl9gXpO51kPr15L+lzOtXNtg9Eq11DlxZXTLjkHnt5kg9RNR4YJIYQQohPeWwjWUsD2jrUi1stbwhOOSwTsGEtIRmmoFVrJB8K3BYJ2yxtJWrFW/nsaSjwPgjW8Jrzx16KcE5+Xd8rqbV+Zw7sv5wBDD8qfvpa3xSBTizWeSrzJ5sZxaZnm4gPLSMB9T58+PXr8+PH4l77M9UnSn8o7xp6ScWW9zYj46TOPHj0a/zJNrVdagHkxGGxzxqTVLvQv8jtnkMkxfujgy+2QYUIIIYTohOdiuuZ++r1irTC3KIcpnrCeuwoXwz2WMlub1yDoW3lByOb1iHMrpUtB30zzRV5qlWsPK741xkVvbwnaEsXU6m/U2/Hx8fitHO63DHX0xVrjJkpqWgc9D+bMxVqpLmn/uXFseeW0krYx3zFIkBfqdAnjRI7h06s3/h73TYydpeOYe5mrwryQY5zImbus8cLfMEoEYwLx5JwnksZFPmmLNL4UrssZR/KY2A4ZJoQQQohOIARaymuO++htxlthzhFoc/EEToTVUqXOE/xrBFbSD4J+SlBktxSErdX4ly9fdm0b8LZzhJXSpfC8DWqU86Co8X8K9YWBqdXQRt1b0IdKQUGzlLQtPCYsAxHt7ymRMfSRqTFMnS/hcRS/1pb8p21PupShJzmr9SjfcX3wmb+lRokcI1lcRspmzVVzZbS8LlKCoSNAfZJWbJTIHT9pPMEoEfA8OKw+mEI+WsewaOBKCCGEEN0YBMIrHq9xGISd8de7x+Xl5dWgeF+rk9714qVBGAT08ao8BsXNjOf09HS8Yp6Li4tDX6CMVlz8vSS+JTg/PzfzRd6XYBD4r6X3/Pnz8df+0Pe8+i8p49nZ2WRb0l+4phfUiZUOeciBcntxUIa1IT9WXkIYFNLxyutQr169E/itZhxZ87QVfvvtN3M+4H7K1Zu5uooDc95c3nLKSRyEtJ6JP6eM1H9831Sw8hy3YW75vbK/efPmEI8FbZlenwauEdtxj3+GhhBCCCFEB1i54XV8KawG9TpP4aZAXXjeAoFBIG3eNsCK6tSK8iD4Hg2KaJYXACt4rD5aDEL+0YMHD8x4KCsrdazm8Tle1UsZhOouq+utWG7PtAVtsgRWeiVtU4qVXiC8ora1LRnTrEz3zj+rwNYK76CMHbwq0rkk5JMVcMYD3y24//z8fPy2Dox/VvOnIF941YQxgRcAZZmqe+qcuq+ZV8NKew3MAz1ecezx9u3b6vNX0rzNzY0epWV8+PBhsWcaED9zYfwMqIkrpy/kxEu5czxNxEIczBNCCCGE6Ia1MsPqzl2BVS9WOq0VLSsMwmDxijNpsOLPvYNQasYbB/LCyqy3Aji3Kt4jsMrXc2W9BerBKuuS+cNLIU2PMLViXkroe7SllVaPQL3RlvS/JbHmkTjggUK/5v/cfku9rA2r2FZeWgLlrfGUiMmdn0IgzZ59dYqavFmeYYwHy1PJC148czDmrPimAmW0PJdKPDAIxDM3Fr25Jw2tfUq0IcOEEEII0RnLRZ6wtCKzFxBsrfJPBQTiEmoEYYIleHrt1RooEwositne2t5SFhHwl8ZSknqmW6rU5AbaEkPB2m3JWCpRLK1A3qljjBKWIrg0tAnjwMpbaaAuqBPPwFgCcVAvVjpxCG2/Zt3l5o0wZyTjN8pg3RuHVmNb7tgjL3NtmGPMyoknkJu3LcaH+I62cgghhBALgOtyuoVhEDRXd6PegvSgsxwGhaPIJZv4p7aIeAzK2TX35Nq4YkKclIPAd/7fK2xxSN39B8Vk8YM4vb6B+3oPerYl4zW0Y9pn1oYycYgu5SOkbUf+Qgh9kG1HtOce8h+gHOQdl/pwKDCfLRf7uCwcCom7P23SG8YC20birTOkTVockrpUujn0yht1HuIK4y/UL1toepWRdmT7SJpOnGfmeb7Pwf0nJyeH+AIhHvKcGw8Q19y8QFw8H8R2yDAhhBBCLAACGntaU047nKkghBCAwpmrnN0Uti7TbazTlJtYxrvQLncdGSaEEEKIhVj7sD8hhBBCiJuIDBNCCCHEgqTvvgfcq8/OzsZvQgghhBB3m3+N/wshhBBiATBApN4R7Bf2XkkphBBCCHHXkGFCCCGEWBCMEpwrkcIWj5r3ywshhBBC3Da0lUMIIYRYAbwkHj9+PH77DieMY7jgdHQhhBBCiLuIPCaEEEKIFeBcCV4VmhogOH+Ct3ewtYNTx4UQQggh7hrymBBCCCFWBOMDRoj43ewxvEqUd/bzPnW9uUMIIYQQdwEZJoQQQogN+PPPPw8Gir///nv8y4+8e/fu6Pnz5+M3IYQQQojbi7ZyCCGEEBuAZ8TFxcXhfAkZIIQQQghxl5HHhBBCCLET8KJgqwdeFJxJQRBCCCGEuO3IMCGEEEIIIYQQQojN0FYOIYQQQgghhBBCbIYME0IIIYQQQgghhNgMGSaEEEIIIYQQQgixGTJMCCGEEEIIIYQQYjNkmBBCCCGEEEIIIcRmyDAhhBBCCCGEEEKIzZBhQgghhBBCCCGEEJshw4QQQgghhBBCCCE2Q4YJIYQQQgghhBBCbIYME0IIIYQQQgghhNgMGSaEEEIIIYQQQgixGTJMCCGEEEIIIYQQYjNkmBBCCCGEEEIIIcRmyDAhhBBCCCGEEEKIjTg6+n/oQ54qF/cEYwAAAABJRU5ErkJggg==;" parent="1" vertex="1">
          <mxGeometry x="800" y="380" width="120" height="23.16" as="geometry" />
        </mxCell>
      </root>
    </mxGraphModel>
  </diagram>
</mxfile>
